<?xml version="1.0" standalone="no"?>
<!DOCTYPE svg PUBLIC "-//W3C//DTD SVG 20010904//EN"
 "http://www.w3.org/TR/2001/REC-SVG-20010904/DTD/svg10.dtd">
<svg version="1.0" xmlns="http://www.w3.org/2000/svg"
 width="389.000000pt" height="81.000000pt" viewBox="0 0 389.000000 81.000000"
 preserveAspectRatio="xMidYMid meet">

<g transform="translate(0.000000,81.000000) scale(0.100000,-0.100000)"
fill="#000000" stroke="none">
<path d="M990 375 c0 -243 4 -375 10 -375 6 0 10 132 10 375 0 243 -4 375 -10
375 -6 0 -10 -132 -10 -375z"/>
<path d="M153 558 c-16 -21 -21 -52 -14 -94 6 -37 9 -39 46 -44 l40 -5 3 -110
3 -111 -36 -41 c-19 -23 -35 -46 -35 -51 0 -21 32 -42 64 -42 39 0 50 8 34 27
-9 11 -6 20 15 41 l27 27 0 -37 c0 -42 19 -58 69 -58 33 0 44 26 16 36 -10 4
-15 20 -15 51 0 31 -7 55 -22 76 -18 25 -23 46 -23 92 0 59 0 60 30 63 16 2
35 12 43 23 10 14 25 19 58 19 l44 0 0 -116 0 -117 -35 -38 c-19 -22 -35 -42
-35 -47 1 -21 22 -35 64 -39 46 -6 57 2 34 25 -10 10 -6 18 15 39 l27 28 0
-38 c0 -31 4 -39 26 -47 33 -13 84 -13 84 0 0 5 -9 15 -20 22 -15 10 -20 24
-20 58 0 28 -8 56 -20 75 -14 22 -20 47 -20 93 l0 62 30 0 c19 0 33 7 40 20 6
11 21 20 34 20 16 0 26 7 30 23 9 34 7 86 -4 108 -10 18 -24 19 -289 19 -211
0 -281 -3 -288 -12z m89 -33 c-23 -29 -19 -59 11 -80 20 -14 18 -15 -31 -15
-48 0 -53 2 -63 27 -6 15 -8 42 -4 60 6 32 7 33 56 33 l50 0 -19 -25z m275 7
c-24 -26 -21 -68 5 -86 21 -15 19 -16 -45 -16 l-67 0 0 34 c0 59 -36 55 -59
-7 -8 -21 -17 -27 -40 -27 l-30 0 24 25 c30 29 31 35 4 69 l-20 26 122 0 c118
0 121 -1 106 -18z m198 -42 c0 -43 -3 -55 -17 -58 -13 -2 -17 5 -20 35 -4 50
-27 50 -50 1 -14 -30 -24 -38 -45 -38 l-27 0 22 20 c28 26 28 54 0 80 l-23 21
80 -3 80 -3 0 -55z m-411 15 c8 -22 -4 -45 -24 -45 -23 0 -42 24 -34 44 8 20
50 21 58 1z m271 -15 c0 -18 -6 -26 -23 -28 -13 -2 -25 3 -28 12 -10 26 4 48
28 44 17 -2 23 -10 23 -28z m-189 -56 c-6 -31 -10 -34 -41 -34 l-34 0 -3 -57
c-3 -55 -4 -58 -30 -61 l-28 -3 0 70 0 71 54 0 c54 0 55 0 67 38 14 43 24 27
15 -24z m280 34 c-3 -7 -7 -25 -10 -40 -6 -24 -11 -28 -41 -28 l-35 0 0 -60 0
-60 -30 0 -31 0 3 68 3 67 53 3 c49 3 54 6 64 33 9 27 32 43 24 17z"/>
<path d="M2607 538 c-9 -8 -17 -31 -19 -56 l-3 -44 -56 -1 c-89 -3 -99 -17
-99 -142 0 -86 3 -105 18 -118 39 -36 136 -33 173 4 17 17 19 34 19 194 0 96
-4 175 -8 175 -5 0 -16 -6 -25 -12z m-29 -160 c7 -7 12 -41 12 -84 0 -83 -10
-97 -67 -92 l-38 3 -3 84 c-2 61 1 87 10 92 19 13 72 11 86 -3z"/>
<path d="M3608 539 c-16 -9 -18 -30 -18 -199 l0 -190 25 12 c21 9 24 18 27 72
l3 61 50 0 50 0 3 -72 3 -72 24 11 c22 10 25 17 25 70 0 74 -10 93 -57 109
l-37 12 45 38 44 38 -25 9 c-22 9 -31 4 -77 -41 l-53 -51 0 102 c0 56 -3 102
-7 102 -5 0 -16 -5 -25 -11z"/>
<path d="M1893 437 c-22 -10 -23 -15 -23 -127 0 -105 2 -119 20 -135 31 -28
117 -31 158 -6 l32 21 0 130 0 130 -25 -12 c-24 -11 -25 -14 -25 -119 0 -116
-2 -119 -58 -119 -48 0 -51 9 -54 131 l-3 116 -22 -10z"/>
<path d="M1350 433 c-31 -12 -50 -37 -50 -68 0 -41 27 -65 82 -72 54 -7 68
-18 68 -53 0 -29 -15 -40 -55 -40 -41 0 -55 11 -55 41 0 32 -3 34 -31 19 -25
-14 -25 -62 1 -85 31 -28 117 -31 158 -6 29 19 32 25 32 71 0 73 -20 89 -130
103 -8 1 -15 11 -15 22 0 26 53 34 70 11 13 -18 55 -11 55 9 0 37 -81 66 -130
48z"/>
<path d="M1603 421 l-33 -21 0 -103 c0 -129 9 -142 101 -142 l59 0 0 -57 0
-58 25 12 25 11 0 168 0 169 -26 16 c-40 27 -113 29 -151 5z m111 -37 c13 -5
16 -23 16 -89 0 -88 -4 -95 -55 -95 -51 0 -55 7 -55 95 0 57 4 85 13 88 18 8
63 8 81 1z"/>
<path d="M2192 416 c-12 -26 -11 -26 32 -26 56 0 76 -8 76 -29 0 -13 -11 -16
-56 -16 -49 0 -59 -4 -80 -28 -45 -52 -28 -137 31 -157 35 -12 123 -9 145 5 6
4 10 53 10 120 0 112 -1 115 -26 131 -14 10 -46 19 -72 22 -44 4 -49 2 -60
-22z m92 -122 c11 -4 16 -19 16 -45 0 -32 -4 -40 -24 -45 -13 -3 -35 -4 -47
-2 -20 2 -25 10 -27 42 -2 24 2 42 10 47 15 10 50 11 72 3z"/>
<path d="M2780 433 c-31 -12 -50 -37 -50 -68 0 -41 27 -65 82 -72 54 -7 68
-18 68 -53 0 -29 -15 -40 -55 -40 -41 0 -55 11 -55 41 0 32 -3 34 -31 19 -25
-14 -25 -62 1 -85 31 -28 117 -31 158 -6 29 19 32 25 32 71 0 73 -20 89 -130
103 -8 1 -15 11 -15 22 0 26 53 34 70 11 13 -18 55 -11 55 9 0 37 -81 66 -130
48z"/>
<path d="M3033 421 l-33 -21 0 -103 c0 -124 9 -138 93 -144 75 -6 117 21 117
77 0 39 -1 39 -25 28 -14 -6 -25 -19 -25 -29 0 -9 -7 -20 -16 -23 -32 -12 -94
-3 -94 13 0 4 36 36 80 70 61 47 80 68 80 86 0 54 -116 84 -177 46z m117 -41
c8 -5 12 -11 10 -13 -3 -2 -26 -20 -51 -40 -25 -20 -49 -37 -53 -37 -12 0 -6
88 7 93 21 9 71 7 87 -3z"/>
<path d="M3340 433 c-44 -16 -50 -33 -50 -138 0 -113 8 -129 68 -141 78 -16
142 20 142 81 0 32 -1 34 -23 24 -13 -6 -27 -20 -32 -32 -8 -18 -18 -22 -54
-22 -25 0 -46 5 -48 12 -2 6 32 39 76 73 81 61 90 75 71 110 -17 31 -103 50
-150 33z m98 -52 c9 -5 -2 -21 -43 -55 l-55 -48 0 50 c0 31 5 52 13 55 20 9
71 7 85 -2z"/>
</g>
</svg>
